<svg xmlns="http://www.w3.org/2000/svg" xmlns:xlink="http://www.w3.org/1999/xlink" viewBox="0 0 64 64" version="1.1" x="0px" y="0px"><g stroke="none" stroke-width="1" fill="none" fill-rule="evenodd"><g transform="translate(-420.000000, -385.000000)" fill="#000000"><g transform="translate(108.000000, 60.000000)"><path d="M344,354 C325.457,354 313,348.312 313,343 C313,338.86 320.578,334.497 332.696,332.772 C332.253,333.955 332,335.21 332,336.5 C332,339.5 338,341 344,341 C350,341 356,339.5 356,336.5 C356,335.215 355.741,333.958 355.29,332.769 C367.417,334.494 375,338.858 375,343 C375,348.312 362.543,354 344,354 L344,354 Z M375,346 C375,351.312 362.543,357 344,357 C325.457,357 313,351.312 313,346 L313,345.987 C316.54,351.169 329.077,355 344,355 C358.923,355 371.46,351.169 375,345.987 L375,346 Z M344,326 C349.86,326 355,330.907 355,336.5 C355,338.43 350.065,340 344,340 C337.935,340 333,338.43 333,336.5 C333,330.808 338.037,326 344,326 L344,326 Z M354.824,331.709 C352.894,327.863 348.78,325 344,325 C339.203,325 335.076,327.837 333.155,331.712 C320.823,333.379 312,337.801 312,343 L312,346 C312,350.333 318.125,354.128 327.304,356.238 L324.06,362.263 C323.929,362.506 324.02,362.81 324.263,362.94 C324.338,362.98 324.419,363 324.5,363 C324.678,363 324.85,362.905 324.94,362.737 L328.321,356.46 C332.955,357.439 338.302,358 344,358 C349.698,358 355.045,357.439 359.679,356.46 L363.06,362.737 C363.15,362.905 363.322,363 363.5,363 C363.58,363 363.662,362.98 363.737,362.94 C363.98,362.81 364.071,362.506 363.94,362.263 L360.696,356.238 C369.875,354.128 376,350.333 376,346 L376,343 C376,337.798 367.167,333.374 354.824,331.709 L354.824,331.709 Z M344.5,329 C348.706,329 352,332.294 352,336.5 C352,336.776 352.224,337 352.5,337 C352.776,337 353,336.776 353,336.5 C353,331.733 349.267,328 344.5,328 C344.224,328 344,328.224 344,328.5 C344,328.776 344.224,329 344.5,329 L344.5,329 Z"/></g></g></g></svg>
